<svg xmlns="http://www.w3.org/2000/svg" viewBox="0 0 64 64" fill="none">
  <rect width="64" height="64" rx="14" fill="#2563EB"/>
  <path d="M18 40V24a2 2 0 0 1 2-2h5a2 2 0 0 1 2 2v16a2 2 0 0 1-2 2h-5a2 2 0 0 1-2-2Z" fill="#E0EAFF"/>
  <path d="M30 40V18a2 2 0 0 1 2-2h5a2 2 0 0 1 2 2v22a2 2 0 0 1-2 2h-5a2 2 0 0 1-2-2Z" fill="#D1FAE5"/>
  <path d="M42 40V30a2 2 0 0 1 2-2h5a2 2 0 0 1 2 2v10a2 2 0 0 1-2 2h-5a2 2 0 0 1-2-2Z" fill="#FEF3C7"/>
  <path d="M16 46h32" stroke="#0B1B4D" stroke-opacity="0.35" stroke-width="3" stroke-linecap="round"/>
</svg>

